<mxfile host="65bd71144e">
    <diagram id="3mqhrXmRlfJ7SKwbVHZW" name="登入作業">
        <mxGraphModel dx="864" dy="2900" grid="1" gridSize="10" guides="1" tooltips="1" connect="1" arrows="1" fold="1" page="1" pageScale="1" pageWidth="827" pageHeight="1169" math="0" shadow="0">
            <root>
                <mxCell id="0"/>
                <mxCell id="1" parent="0"/>
                <mxCell id="15" value="alt" style="shape=umlFrame;tabPosition=left;html=1;boundedLbl=1;labelInHeader=1;width=50;height=30;" parent="1" vertex="1">
                    <mxGeometry x="169" y="-2065" width="490" height="340" as="geometry"/>
                </mxCell>
                <mxCell id="16" value="沒帳號" style="text;align=center;" parent="15" vertex="1">
                    <mxGeometry width="100" height="20" relative="1" as="geometry">
                        <mxPoint x="-9" y="95" as="offset"/>
                    </mxGeometry>
                </mxCell>
                <mxCell id="28" value="else" style="text;align=center;" vertex="1" parent="15">
                    <mxGeometry x="-9" y="251.42857142857142" width="100" height="24.28571428571429" as="geometry"/>
                </mxCell>
                <mxCell id="31" value="" style="html=1;verticalAlign=bottom;labelBackgroundColor=none;endArrow=block;endFill=1;" edge="1" parent="15">
                    <mxGeometry width="160" relative="1" as="geometry">
                        <mxPoint x="85" y="65" as="sourcePoint"/>
                        <mxPoint x="331" y="65" as="targetPoint"/>
                    </mxGeometry>
                </mxCell>
                <mxCell id="34" value="輸入註冊訊息" style="edgeLabel;html=1;align=center;verticalAlign=middle;resizable=0;points=[];" vertex="1" connectable="0" parent="31">
                    <mxGeometry x="0.1382" y="3" relative="1" as="geometry">
                        <mxPoint x="-24" as="offset"/>
                    </mxGeometry>
                </mxCell>
                <mxCell id="2" value=":一般會員、PRO會員、外送員、客服人員、網站維護工程師、餐廳" style="shape=umlActor;verticalLabelPosition=bottom;verticalAlign=top;html=1;" parent="1" vertex="1">
                    <mxGeometry x="230" y="-2220" width="30" height="60" as="geometry"/>
                </mxCell>
                <mxCell id="3" value=":系統" style="rounded=0;whiteSpace=wrap;html=1;" parent="1" vertex="1">
                    <mxGeometry x="640" y="-2220" width="120" height="60" as="geometry"/>
                </mxCell>
                <mxCell id="7" value="" style="endArrow=none;startArrow=none;endFill=0;startFill=0;endSize=8;html=1;verticalAlign=bottom;dashed=1;labelBackgroundColor=none;dashPattern=10 10;" parent="1" edge="1">
                    <mxGeometry x="0.375" y="70" width="160" relative="1" as="geometry">
                        <mxPoint x="244.41" y="-2100" as="sourcePoint"/>
                        <mxPoint x="244" y="-1220" as="targetPoint"/>
                        <mxPoint x="-1" as="offset"/>
                    </mxGeometry>
                </mxCell>
                <mxCell id="8" value="" style="endArrow=none;startArrow=none;endFill=0;startFill=0;endSize=8;html=1;verticalAlign=bottom;dashed=1;labelBackgroundColor=none;dashPattern=10 10;" parent="1" edge="1">
                    <mxGeometry x="0.375" y="70" width="160" relative="1" as="geometry">
                        <mxPoint x="596.4100000000001" y="-2100" as="sourcePoint"/>
                        <mxPoint x="596" y="-1220" as="targetPoint"/>
                        <mxPoint x="-1" as="offset"/>
                    </mxGeometry>
                </mxCell>
                <mxCell id="21" value="" style="endArrow=none;startArrow=none;endFill=0;startFill=0;endSize=8;html=1;verticalAlign=bottom;dashed=1;labelBackgroundColor=none;dashPattern=10 10;exitX=-0.004;exitY=0.588;exitDx=0;exitDy=0;exitPerimeter=0;entryX=1.006;entryY=0.588;entryDx=0;entryDy=0;entryPerimeter=0;" parent="1" edge="1">
                    <mxGeometry x="0.375" y="70" width="160" relative="1" as="geometry">
                        <mxPoint x="167.03999999999996" y="-1885.3600000000001" as="sourcePoint"/>
                        <mxPoint x="661.94" y="-1885.3600000000001" as="targetPoint"/>
                        <mxPoint x="-1" as="offset"/>
                    </mxGeometry>
                </mxCell>
                <mxCell id="24" value="" style="endArrow=none;startArrow=none;endFill=0;startFill=0;endSize=8;html=1;verticalAlign=bottom;dashed=1;labelBackgroundColor=none;dashPattern=10 10;" parent="1" edge="1">
                    <mxGeometry x="0.375" y="70" width="160" relative="1" as="geometry">
                        <mxPoint x="508.4100000000001" y="-2100" as="sourcePoint"/>
                        <mxPoint x="508" y="-1220" as="targetPoint"/>
                        <mxPoint x="-1" as="offset"/>
                    </mxGeometry>
                </mxCell>
                <mxCell id="26" value=":註冊服務" style="rounded=0;whiteSpace=wrap;html=1;" vertex="1" parent="1">
                    <mxGeometry x="450" y="-2220" width="120" height="60" as="geometry"/>
                </mxCell>
                <mxCell id="30" value="" style="html=1;verticalAlign=bottom;labelBackgroundColor=none;endArrow=block;endFill=1;dashed=1;" edge="1" parent="1">
                    <mxGeometry width="160" relative="1" as="geometry">
                        <mxPoint x="501" y="-1940" as="sourcePoint"/>
                        <mxPoint x="251" y="-1940" as="targetPoint"/>
                    </mxGeometry>
                </mxCell>
            </root>
        </mxGraphModel>
    </diagram>
</mxfile>